<svg width="48" height="48" viewBox="0 0 48 48" fill="none" xmlns="http://www.w3.org/2000/svg">
<rect width="48" height="48" rx="8" fill="#1818CF"/>
<path d="M11.0963 20.3545H14.1354V23.2705H11.0973L11.0983 24.6338C11.0993 26.2977 12.4591 27.6465 14.1354 27.6465V30.5625C10.8372 30.5625 8.16285 27.9096 8.16077 24.6357L8.15588 17.4395L11.0944 17.4375L11.0963 20.3545Z" fill="#FEFEFE"/>
<rect x="16.5562" y="18.8958" width="5.54167" height="10.2083" rx="2.77083" stroke="#FEFEFE" stroke-width="2.91667"/>
<path d="M30.4982 20.3535C28.8219 20.3535 27.4621 21.7023 27.4611 23.3662L27.4601 24.7295H30.4982V27.6455H27.4591L27.4572 30.5625L24.5187 30.5606L24.5236 23.3643C24.5256 20.0904 27.1999 17.4375 30.4982 17.4375V20.3535Z" fill="#FEFEFE"/>
<path d="M35.6899 30.5625C33.3542 30.5625 31.4607 28.669 31.4607 26.3333L31.4607 17.4375L34.3774 17.4375L34.3774 26.3333C34.3774 27.0582 34.965 27.6458 35.6899 27.6458C36.4035 27.6458 36.984 27.0764 37.002 26.3672L37.0024 26.3333L37.0024 17.4375L39.9191 17.4375L39.9191 26.3333C39.9191 28.669 38.0256 30.5625 35.6899 30.5625Z" fill="#FEFEFE"/>
</svg>
