<svg width="512" height="512" viewBox="0 0 512 512" fill="none" xmlns="http://www.w3.org/2000/svg">
<rect width="512" height="512" fill="#1818CF"/>
<path d="M118.36 217.111H150.777V248.223H118.38L118.389 262.762C118.4 280.509 132.898 294.89 150.777 294.891V326C115.596 326 87.0711 297.702 87.0488 262.781L87 186.02L118.341 186L118.36 217.111Z" fill="#FEFEFE"/>
<rect x="176.6" y="201.556" width="59.1111" height="108.889" rx="29.5556" stroke="#FEFEFE" stroke-width="31.1111"/>
<path d="M325.31 217.109C307.431 217.11 292.933 231.491 292.922 249.238L292.913 263.777H325.31V294.889H292.893L292.874 326L261.533 325.98L261.582 249.22C261.604 214.298 290.129 186 325.31 186V217.109Z" fill="#FEFEFE"/>
<path d="M380.688 326C355.774 326 335.577 305.803 335.577 280.889L335.577 186L366.688 186L366.688 280.889C366.688 288.621 372.956 294.889 380.688 294.889C388.299 294.889 394.492 288.815 394.683 281.25L394.688 280.889L394.688 186L425.799 186L425.799 280.889C425.799 305.803 405.602 326 380.688 326Z" fill="#FEFEFE"/>
</svg>
