<svg width="166" height="267" viewBox="0 0 166 267" fill="none" xmlns="http://www.w3.org/2000/svg">
<path d="M0 1C0 0.447715 0.447715 0 1 0C1.55228 0 2 0.447715 2 1C2 54.9164 40.8927 95.1236 80.2119 134.969C99.8197 154.839 119.512 174.609 134.29 195.866C148.626 216.488 158.385 238.578 158.971 263.614L163.657 258.929C164.048 258.538 164.681 258.538 165.071 258.929C165.462 259.319 165.462 259.952 165.071 260.343L158.707 266.707C158.317 267.098 157.683 267.098 157.293 266.707L150.929 260.343C150.538 259.952 150.538 259.319 150.929 258.929C151.319 258.538 151.952 258.538 152.343 258.929L156.97 263.556C156.371 239.081 146.825 217.402 132.647 197.008C117.988 175.92 98.43 156.278 78.7881 136.373C39.6074 96.6683 0 55.8782 0 1Z" fill="#757575"/>
</svg>
