<svg width="74" height="131" viewBox="0 0 74 131" fill="none" xmlns="http://www.w3.org/2000/svg">
<path d="M0.00591743 1.7481C-0.00412235 1.17314 -0.00144009 0.590531 0.0143725 0C-0.000685141 0.589953 -0.00337776 1.17257 0.00591743 1.7481C0.471325 28.4012 28.2753 38.6179 42.7408 59.4261C57.0767 80.048 66.8361 102.137 67.4215 127.174L72.108 122.489C72.4985 122.098 73.1316 122.098 73.5221 122.489C73.9125 122.879 73.9123 123.512 73.5221 123.903L67.1578 130.267C66.7673 130.657 66.1343 130.657 65.7437 130.267L59.3795 123.903C58.9893 123.512 58.9891 122.879 59.3795 122.489C59.7699 122.098 60.403 122.098 60.7935 122.489L65.4205 127.116C64.8222 102.641 55.276 80.9621 41.0982 60.5677C26.7473 39.9244 0.437785 28.488 0.00591743 1.7481Z" fill="#757575"/>
</svg>
