<svg width="24" height="24" viewBox="0 0 24 24" fill="none" xmlns="http://www.w3.org/2000/svg">
<path d="M13.9424 3.08999C13.4924 3.27749 13.1999 3.71249 13.1999 4.19999V7.19999H8.9999C5.3549 7.19999 2.3999 10.155 2.3999 13.8C2.3999 18.0487 5.45615 19.9462 6.1574 20.3287C6.25115 20.3812 6.35615 20.4 6.46115 20.4C6.8699 20.4 7.1999 20.0662 7.1999 19.6612C7.1999 19.38 7.03865 19.1212 6.8324 18.93C6.4799 18.6 5.9999 17.94 5.9999 16.8037C5.9999 14.8162 7.6124 13.2037 9.5999 13.2037H13.1999V16.2037C13.1999 16.6875 13.4924 17.1262 13.9424 17.3137C14.3924 17.5012 14.9062 17.3962 15.2512 17.055L21.2512 11.055C21.7199 10.5862 21.7199 9.82499 21.2512 9.35624L15.2512 3.35624C14.9062 3.01124 14.3924 2.90999 13.9424 3.09749V3.08999Z" fill="#757575"/>
</svg>
