<svg width="24" height="24" viewBox="0 0 24 24" fill="none" xmlns="http://www.w3.org/2000/svg">
<path d="M11 22.95V20.95C8.91665 20.7167 7.12899 19.8543 5.63699 18.363C4.14499 16.8717 3.28265 15.084 3.04999 13H1.04999V11H3.04999C3.28332 8.91667 4.14599 7.129 5.63799 5.637C7.12999 4.145 8.91732 3.28267 11 3.05V1.05H13V3.05C15.0833 3.28333 16.871 4.146 18.363 5.638C19.855 7.13 20.7173 8.91733 20.95 11H22.95V13H20.95C20.7167 15.0833 19.8543 16.871 18.363 18.363C16.8717 19.855 15.084 20.7173 13 20.95V22.95H11ZM12 19C13.9333 19 15.5833 18.3167 16.95 16.95C18.3167 15.5833 19 13.9333 19 12C19 10.0667 18.3167 8.41667 16.95 7.05C15.5833 5.68333 13.9333 5 12 5C10.0667 5 8.41665 5.68333 7.04999 7.05C5.68332 8.41667 4.99999 10.0667 4.99999 12C4.99999 13.9333 5.68332 15.5833 7.04999 16.95C8.41665 18.3167 10.0667 19 12 19ZM12 16C10.9 16 9.95832 15.6083 9.17499 14.825C8.39165 14.0417 7.99999 13.1 7.99999 12C7.99999 10.9 8.39165 9.95833 9.17499 9.175C9.95832 8.39167 10.9 8 12 8C13.1 8 14.0417 8.39167 14.825 9.175C15.6083 9.95833 16 10.9 16 12C16 13.1 15.6083 14.0417 14.825 14.825C14.0417 15.6083 13.1 16 12 16Z" fill="#757575"/>
</svg>
