<svg width="24" height="24" viewBox="0 0 24 24" fill="none" xmlns="http://www.w3.org/2000/svg">
<path d="M6.66667 7.66667C6.28889 7.66667 5.97245 7.53867 5.71734 7.28267C5.46223 7.02667 5.33423 6.71022 5.33334 6.33333C5.33245 5.95644 5.46045 5.64 5.71734 5.384C5.97423 5.128 6.29067 5 6.66667 5H22.6667C23.0444 5 23.3613 5.128 23.6173 5.384C23.8733 5.64 24.0009 5.95644 24 6.33333C23.9991 6.71022 23.8711 7.02711 23.616 7.284C23.3609 7.54089 23.0444 7.66844 22.6667 7.66667H6.66667ZM6.66667 13C6.28889 13 5.97245 12.872 5.71734 12.616C5.46223 12.36 5.33423 12.0436 5.33334 11.6667C5.33245 11.2898 5.46045 10.9733 5.71734 10.7173C5.97423 10.4613 6.29067 10.3333 6.66667 10.3333H22.6667C23.0444 10.3333 23.3613 10.4613 23.6173 10.7173C23.8733 10.9733 24.0009 11.2898 24 11.6667C23.9991 12.0436 23.8711 12.3604 23.616 12.6173C23.3609 12.8742 23.0444 13.0018 22.6667 13H6.66667ZM6.66667 18.3333C6.28889 18.3333 5.97245 18.2053 5.71734 17.9493C5.46223 17.6933 5.33423 17.3769 5.33334 17C5.33245 16.6231 5.46045 16.3067 5.71734 16.0507C5.97423 15.7947 6.29067 15.6667 6.66667 15.6667H22.6667C23.0444 15.6667 23.3613 15.7947 23.6173 16.0507C23.8733 16.3067 24.0009 16.6231 24 17C23.9991 17.3769 23.8711 17.6938 23.616 17.9507C23.3609 18.2075 23.0444 18.3351 22.6667 18.3333H6.66667ZM1.33334 7.66667C0.955564 7.66667 0.639119 7.53867 0.384008 7.28267C0.128897 7.02667 0.000897301 6.71022 8.41239e-06 6.33333C-0.000880476 5.95644 0.12712 5.64 0.384008 5.384C0.640897 5.128 0.957341 5 1.33334 5C1.70934 5 2.02623 5.128 2.28401 5.384C2.54178 5.64 2.66934 5.95644 2.66667 6.33333C2.66401 6.71022 2.53601 7.02711 2.28267 7.284C2.02934 7.54089 1.7129 7.66844 1.33334 7.66667ZM1.33334 13C0.955564 13 0.639119 12.872 0.384008 12.616C0.128897 12.36 0.000897301 12.0436 8.41239e-06 11.6667C-0.000880476 11.2898 0.12712 10.9733 0.384008 10.7173C0.640897 10.4613 0.957341 10.3333 1.33334 10.3333C1.70934 10.3333 2.02623 10.4613 2.28401 10.7173C2.54178 10.9733 2.66934 11.2898 2.66667 11.6667C2.66401 12.0436 2.53601 12.3604 2.28267 12.6173C2.02934 12.8742 1.7129 13.0018 1.33334 13ZM1.33334 18.3333C0.955564 18.3333 0.639119 18.2053 0.384008 17.9493C0.128897 17.6933 0.000897301 17.3769 8.41239e-06 17C-0.000880476 16.6231 0.12712 16.3067 0.384008 16.0507C0.640897 15.7947 0.957341 15.6667 1.33334 15.6667C1.70934 15.6667 2.02623 15.7947 2.28401 16.0507C2.54178 16.3067 2.66934 16.6231 2.66667 17C2.66401 17.3769 2.53601 17.6938 2.28267 17.9507C2.02934 18.2075 1.7129 18.3351 1.33334 18.3333Z" fill="#757575"/>
</svg>
