<svg width="24" height="24" viewBox="0 0 24 24" fill="none" xmlns="http://www.w3.org/2000/svg">
<path d="M3.995 17.207V19.5C3.995 19.6326 4.04767 19.7598 4.14144 19.8536C4.23521 19.9473 4.36239 20 4.495 20H6.793C6.92535 20 7.05229 19.9475 7.146 19.854L16.594 10.406L13.594 7.406L4.142 16.854C4.04816 16.9475 3.99529 17.0745 3.995 17.207ZM14.832 6.167L17.832 9.167L19.292 7.707C19.4795 7.51947 19.5848 7.26517 19.5848 7C19.5848 6.73484 19.4795 6.48053 19.292 6.293L17.707 4.707C17.5195 4.51953 17.2652 4.41422 17 4.41422C16.7348 4.41422 16.4805 4.51953 16.293 4.707L14.832 6.167Z" fill="#757575"/>
</svg>
