<svg width="24" height="24" viewBox="0 0 24 24" fill="none" xmlns="http://www.w3.org/2000/svg">
<path d="M11.884 2.007L11.998 2L12.116 2.007L12.175 2.015L12.236 2.028L12.347 2.062C12.4236 2.09033 12.4965 2.12794 12.564 2.174L12.668 2.256L12.923 2.474C14.9403 4.14956 17.4898 5.0493 20.112 5.011L20.454 5.001C20.6776 4.9908 20.8981 5.05591 21.0803 5.1859C21.2625 5.31589 21.3959 5.50326 21.459 5.718C21.9504 7.38958 22.1008 9.14288 21.9012 10.8737C21.7016 12.6046 21.1561 14.2776 20.2971 15.7935C19.4382 17.3093 18.2833 18.6371 16.901 19.6978C15.5188 20.7585 13.9375 21.5305 12.251 21.968C12.0864 22.0107 11.9136 22.0107 11.749 21.968C10.0624 21.5306 8.48096 20.7587 7.09862 19.698C5.71628 18.6374 4.56127 17.3096 3.70221 15.7938C2.84315 14.2779 2.29759 12.6048 2.09793 10.8739C1.89827 9.14301 2.0486 7.38964 2.53999 5.718C2.6031 5.50326 2.73642 5.31589 2.91863 5.1859C3.10084 5.05591 3.32139 4.9908 3.54499 5.001C6.28245 5.12613 8.96805 4.22499 11.076 2.474L11.339 2.249L11.435 2.174C11.5025 2.12794 11.5753 2.09033 11.652 2.062L11.764 2.028C11.8032 2.01861 11.8439 2.01159 11.884 2.007Z" fill="#757575"/>
</svg>
